<svg xmlns="http://www.w3.org/2000/svg" xmlns:xlink="http://www.w3.org/1999/xlink" viewBox="0 0 138 24.06"><defs><style>.cls-1{fill:none;}.cls-2{fill:#00ae30;}.cls-3{clip-path:url(#clip-path);}.cls-4{fill:#fff;}.cls-5{fill:#5c0000;}.cls-6{opacity:0.5;}</style><clipPath id="clip-path"><circle class="cls-1" cx="89.67" cy="9" r="5.38"/></clipPath></defs><g id="Layer_2" data-name="Layer 2"><g id="Layer_1-2" data-name="Layer 1"><path class="cls-2" d="M83.89,12l-1.27,3-.57,1.33a.66.66,0,0,1-.62.41h-.05a.68.68,0,0,1-.6-.47l-.46-1.49a.67.67,0,0,0-.3-.38l-1.65-1a.67.67,0,0,1,.19-1.24l2.28-.53,2.27-.54.16,0h0A.69.69,0,0,1,83.89,12Z"/><g class="cls-3"><path class="cls-2" d="M82.9,10.87a19.78,19.78,0,0,1,15.55,2.57v3.08H82.9Z"/><path class="cls-4" d="M82.84,10.89A20.1,20.1,0,0,1,95.9,12.12a17.63,17.63,0,0,1,1.67.87c.54.31,1.05.68,1.58,1,0,0,.11-.05.07-.09a13.39,13.39,0,0,0-2.88-1.74A19.54,19.54,0,0,0,93.2,11a20,20,0,0,0-6.66-.72,17.35,17.35,0,0,0-3.71.63Z"/><path class="cls-4" d="M82.67,11.13a22,22,0,0,1,14.17,2.58,19.63,19.63,0,0,1,1.66,1.08c.55.4,1.06.87,1.63,1.25.09.06.17-.07.11-.14a8.45,8.45,0,0,0-1.4-1.13c-.51-.36-1-.69-1.57-1A23.79,23.79,0,0,0,94,12.19a21.87,21.87,0,0,0-7.2-1.44,18.86,18.86,0,0,0-4.11.34,0,0,0,0,0,0,0Z"/><path class="cls-4" d="M82.83,11.56a26.39,26.39,0,0,1,6.86.75A24.31,24.31,0,0,1,96,14.87c1.11.65,2.14,1.41,3.18,2.16a.08.08,0,0,0,.1-.12,16,16,0,0,0-2.79-2,23.65,23.65,0,0,0-3.09-1.58,23.2,23.2,0,0,0-6.65-1.72,21.5,21.5,0,0,0-3.93-.05s0,0,0,0Z"/><path class="cls-4" d="M82.66,12.12a21.31,21.31,0,0,1,11.14,4c.9.66,1.69,1.44,2.56,2.11,0,0,.13,0,.09-.09A9.82,9.82,0,0,0,94.31,16a19.46,19.46,0,0,0-8.25-3.71,16.17,16.17,0,0,0-3.4-.24,0,0,0,0,0,0,0Z"/><path class="cls-5" d="M82.48,12.81a6.76,6.76,0,0,1,2.89.7,19.27,19.27,0,0,1,2.22,1.13,21.31,21.31,0,0,1,4,3c.33.32.65.66,1,1s.67.67,1,1c0,0,.14,0,.1-.08a10.73,10.73,0,0,0-1.59-2,18.87,18.87,0,0,0-1.91-1.67,18.48,18.48,0,0,0-4.48-2.52,6.65,6.65,0,0,0-3.16-.62,0,0,0,1,0,0,0Z"/></g><path class="cls-2" d="M3.33,3.14V19.79L0,23.14v-20Zm10,16.65v3.35H0l3.33-3.35Z"/><path class="cls-2" d="M17.86,23.08l-3.33.06v-20l3.33,6.32Z"/><polygon class="cls-2" points="31.96 3.14 25.71 15.61 19.46 3.14 15.74 3.14 23.84 19.34 25.71 23.08 27.58 19.34 35.68 3.14 31.96 3.14"/><path class="cls-2" d="M26.93,19.79l-1.22,3.08v.27H47.27l1.78-3.35Zm7.31-8.3-1.45,3.33H47.57V11.49Zm0-8.35L32.79,6.49H49.36a6.7,6.7,0,0,1,3-3.35Z"/><path class="cls-4" d="M55.55,14.82a5.62,5.62,0,0,1-4.13-1.71A5.73,5.73,0,0,1,49.72,9a5.67,5.67,0,0,1,1.7-4.1,5.56,5.56,0,0,1,4.13-1.72V6.49a2.62,2.62,0,0,0-1,.17,2.37,2.37,0,0,0-.82.55,2.54,2.54,0,0,0-.53.8,2.58,2.58,0,0,0-.17,1,2.44,2.44,0,0,0,.7,1.78,2.41,2.41,0,0,0,1.8.75h5a5.59,5.59,0,0,1,4.12,1.7,5.78,5.78,0,0,1,0,8.25,5.59,5.59,0,0,1-4.12,1.7V19.79a2.57,2.57,0,0,0,1-.17,2.37,2.37,0,0,0,.83-.53,2.14,2.14,0,0,0,.52-.8,2.4,2.4,0,0,0,.2-1,2.46,2.46,0,0,0-.75-1.75,2.39,2.39,0,0,0-1.77-.75Z"/><path class="cls-4" d="M55.13,3.14V6.49h10L67,3.14Z"/><path class="cls-4" d="M79.37,6.49H76.14V23.14H72.79V6.49h-6.7L68,3.14h6.18A8,8,0,0,1,79.37,6.49Z"/><rect class="cls-4" x="122.32" y="3.14" width="3.35" height="20.01"/><path class="cls-4" d="M50,19.79l-1.77,3.35H61.07V19.79Z"/><path class="cls-2" d="M96.18,2.71a9.08,9.08,0,0,0-12.94,0,8.85,8.85,0,0,0-2.71,6.47,9.49,9.49,0,0,0,.12,1.53l2.25-.53a1.5,1.5,0,0,1,.37,0h.11a1.57,1.57,0,0,1,.3,0,6.77,6.77,0,0,1-.07-1,6,6,0,0,1,6.1-6.1A5.89,5.89,0,0,1,94,4.86a5.89,5.89,0,0,1,1.8,4.32A5.91,5.91,0,0,1,94,13.52a5.87,5.87,0,0,1-4.31,1.76,6,6,0,0,1-4.34-1.76,6.2,6.2,0,0,1-.74-.9l-1.32,3.1a9.08,9.08,0,0,0,12.87-.07,8.71,8.71,0,0,0,2.73-6.47A8.79,8.79,0,0,0,96.18,2.71Z"/><path class="cls-4" d="M117.61,17a7.12,7.12,0,0,1-.68.79A6.65,6.65,0,0,1,105.57,13a6.65,6.65,0,0,1,11.36-4.7,9.19,9.19,0,0,1,.66.76h3.87A10.15,10.15,0,0,0,119.28,6a9.91,9.91,0,0,0-14.11,0,9.63,9.63,0,0,0-3,7.05,9.62,9.62,0,0,0,3,7.06,9.91,9.91,0,0,0,14.11,0A9.75,9.75,0,0,0,121.46,17Z"/><path class="cls-4" d="M128,13.14l10,10h-4.7l-8.66-8.6-1.4-1.38,1.4-1.4,8.66-8.62H138Zm-3.36-1.38,8.66-8.62Zm8.66,11.38-8.66-8.6Z"/><path class="cls-4" d="M86.61,21.73a2,2,0,0,0-.25-.58,1.9,1.9,0,0,0-1.46-.87,1.2,1.2,0,0,0-.19,0,1.76,1.76,0,0,0-.45.07,1.64,1.64,0,0,0-.57.26,1.67,1.67,0,0,0-.39.36,1.89,1.89,0,0,0,1.33,3.09h.19a1.89,1.89,0,0,0,1.83-1.81.57.57,0,0,0,0-.13C86.65,22,86.63,21.86,86.61,21.73Z"/><path class="cls-4" d="M96.76,20.5a1.94,1.94,0,0,0-.44-.31,1.8,1.8,0,0,0-.66-.19h-.24a1.9,1.9,0,0,0-1.52.84,1.77,1.77,0,0,0-.27.63,1.48,1.48,0,0,0,0,.47V22a1.9,1.9,0,0,0,1.76,1.78h.18a1.9,1.9,0,0,0,1.84-1.94A1.84,1.84,0,0,0,96.76,20.5Z"/><path class="cls-4" d="M80.45,9.67l-.1-3.47a3.23,3.23,0,0,0-3-3.14H77l-3.11.08a1.5,1.5,0,0,0-.06,3H74L77.11,6h0a.24.24,0,0,1,.24.24l.09,3.47a13.16,13.16,0,0,0,.2,1.89,1.58,1.58,0,0,1,.69-.36l2.19-.52A9.81,9.81,0,0,1,80.45,9.67Z"/><path class="cls-4" d="M101.81,9.1l0-1.8a1.49,1.49,0,0,0-1.39-1.45h-.15a1.49,1.49,0,0,0-1.45,1.53l0,1.8c0,.26,0,.51,0,.76a9.19,9.19,0,0,1-8.93,8.67,8.55,8.55,0,0,1-.88,0,9.23,9.23,0,0,1-3.26-.84A9.36,9.36,0,0,1,83.18,16l-.3.7a1.56,1.56,0,0,1-1.56,1,1.59,1.59,0,0,1-1.4-1.1l-.44-1.41-.87-.52a12.23,12.23,0,0,0,4.58,5.16,2.92,2.92,0,0,1,1.5-.47H85a2.85,2.85,0,0,1,2.59,2.13c.41.07.83.12,1.25.15a11.16,11.16,0,0,0,1.16,0,12.65,12.65,0,0,0,2.7-.38,3,3,0,0,1,.71-1.33,2.87,2.87,0,0,1,2-.9h.28a3,3,0,0,1,1.09.29A12.17,12.17,0,0,0,101.81,9.1Z"/><path class="cls-4" d="M89,10.53h0s0,0,0,0v0s0,0,0,0h0a0,0,0,0,1,0,0s0,0,0,0,0,0,0,0a.13.13,0,0,0-.1,0,.23.23,0,0,0-.07.14.78.78,0,0,1,0,.14l-.06.06s0,0-.08,0l-.1,0,0,0a.14.14,0,0,1,0-.06.64.64,0,0,0-.07-.28.19.19,0,0,0-.14-.09.06.06,0,0,0,0,0s0,0,0,0h0s0,0,0,0h0v0h0s0,0,0,0,0,0,0,0h0a0,0,0,0,0,0,0s0,0,0,0a.05.05,0,0,0,0,.05l0,0a.07.07,0,0,1,0,0,.13.13,0,0,1,0,.06c0,.12-.1.23-.11.36a.4.4,0,0,0,.08.23l.06.06.07.05.05.05,0,0,0,0s0,.07,0,.1l0,.12c0,.05-.09,0-.12.05s0,0,0,0h.08l0,0h0v0h0s0,0,0,0h0s0,0,0,0h0s0,0,0,0,0,0,0,0h0s0,0,0,0h0v0a.59.59,0,0,1,0-.13l0,0,0-.05s0,0,0,0l0,.06a.1.1,0,0,0,0,.05l0,0h0s0,0,0,0a.07.07,0,0,1,0,.05v0s0,0,0,0h-.09s0,0,0,0l0,0h0s0,0,0,0h0s0,0,0,0a0,0,0,0,1,0,0h0a0,0,0,0,1,0,0s0,0,0,0v0a0,0,0,0,0,0,0s0,0,0,0l0,0h0v0a.4.4,0,0,1,0-.11.09.09,0,0,1,0-.07.42.42,0,0,0,0-.1v0s0,0,0,0l.08,0,.09-.09a.47.47,0,0,1,.06-.09l0,0s0,0,0,0,.06,0,0-.08v0l0,0s0,0,0,0,0,0,0-.05,0,0,0-.05a.05.05,0,0,1,0,0S89,10.54,89,10.53Z"/><path class="cls-4" d="M94.4,10.27s0-.07-.05-.08,0,0,.05,0a.13.13,0,0,0,0-.05s0,0,0,0a0,0,0,0,1,0,0,.15.15,0,0,0,0-.05l0,0,0,0a.84.84,0,0,1-.05-.17c0-.2,0-.87,0-1.07a.22.22,0,0,0-.15-.22c-.15-.3-.53-.28-.73-.24a5.07,5.07,0,0,1-1.34,0,2.11,2.11,0,0,0-.86,0l-.09,0c-.95.24-.91.4-1,.81a3.56,3.56,0,0,1-.32.73l-.24.35a0,0,0,0,1-.07,0,.07.07,0,0,0-.1,0c0,.05,0,.11,0,.22a.66.66,0,0,0-.06.32c0,.13-.11.49-.12.57s.07.13.1.13a.35.35,0,0,0,.18,0c.06,0,.09-.14.09-.14a2,2,0,0,0,.27-.2c.27-.21.24-.43.33-.5s0-.17.13-.16.09-.07.12,0,.08,0,.09,0,.06,0,.09,0,.08,0,.09,0,0,0,.06,0,0,0,0,0a.12.12,0,0,0,.07,0,.53.53,0,0,0,0,.31.89.89,0,0,1-.17.42c-.07.05-.17.16-.16.2s.18,0,.25,0,0-.07.08-.09,0,0,0-.08,0-.14.06-.23a1.69,1.69,0,0,1,.13-.31,1.54,1.54,0,0,0,.12-.3,2.88,2.88,0,0,0-.2-.39,1.45,1.45,0,0,1,.22.32h0a1.36,1.36,0,0,1,.11.34.92.92,0,0,0,.1.29,1,1,0,0,1,0,.2s0,.14,0,.17-.12.11-.09.16.24,0,.26,0,0,0,0-.07,0,0,0,0,0-.34,0-.4a2.33,2.33,0,0,0,0-.57c0-.37.22-.23.22-.23a1.76,1.76,0,0,0,1.18.09.58.58,0,0,0,.36.23v0a1.14,1.14,0,0,0-.11-.42s.06,0,.16.41v0h0a1,1,0,0,1,0,.33,1,1,0,0,1-.28.56c-.11,0-.21.13-.15.16a.39.39,0,0,0,.26,0s0-.08.07-.08,0,0,.08-.07a5,5,0,0,1,.37-.65c.1-.11,0-.32,0-.32h0s0-.07,0-.22a1.62,1.62,0,0,1,.24-.47,2.32,2.32,0,0,0-.19.48.49.49,0,0,0,0,.19h0l.07,0h0A.63.63,0,0,0,94,9.92a.58.58,0,0,1-.13.52,1.6,1.6,0,0,1,.22.53c0,.21,0,.41-.09.45s-.18.13-.09.16a.46.46,0,0,0,.27,0s0-.07,0-.11.06,0,.06-.05,0,0,0-.12,0-.66,0-.74.09-.07,0-.22h0v0a.16.16,0,0,0,0-.07.31.31,0,0,1,0,.07.2.2,0,0,0,0,.07.08.08,0,0,0,0,0,.07.07,0,0,1,0-.05.22.22,0,0,0,0-.08.3.3,0,0,1,0,.06s0,0,0,0a.24.24,0,0,0,0-.11.07.07,0,0,1,0,0s0,.05,0,.05A.13.13,0,0,1,94.4,10.27Zm-.19-.11a.38.38,0,0,1,0,.08v0S94.2,10.17,94.21,10.16Zm0,0a.56.56,0,0,1,0,.07l0,0A.06.06,0,0,0,94.23,10.2Zm-.11-1.12a1.32,1.32,0,0,0,0-.27,5,5,0,0,1,0,.82,1.17,1.17,0,0,0,.06.45.53.53,0,0,0,0,.13A1.57,1.57,0,0,1,94.12,9.08Zm.15,1.22,0,0v-.06a.29.29,0,0,1,0,.08,0,0,0,0,0,0,0Z"/><path class="cls-4" d="M87.6,9.78v0s0,0,0,0h0s0,.07,0,.1a.53.53,0,0,0,0,.12s0,0,0,.05,0,0,0,0l0-.07s0-.12,0-.16-.17,0-.2,0l-.14.29c-.06.12,0,.25-.1.36s0,0,0,0a.34.34,0,0,0-.07.19c0,.09,0,.18,0,.26a.28.28,0,0,0,0,.09l0,.11s0,.07,0,.09h0a.18.18,0,0,1,.08.09l-.07,0,0,0h0v.08s-.16,0-.18,0h0s0-.06-.06-.08a.17.17,0,0,0,0-.1l0-.15a.38.38,0,0,0,0-.1.25.25,0,0,1-.06-.18s0-.19,0-.23l0-.06.06-.07.09-.06-.09,0a.27.27,0,0,0-.08.07.21.21,0,0,0,0,.06h0l-.06,0a1.77,1.77,0,0,1-.31.08.49.49,0,0,1-.17,0l-.12,0s0,0,0,0-.09.13-.13.2h0s0,0,0,0,0,0,0,0,0,0,0,0a0,0,0,0,1,0,0v0a.19.19,0,0,1,0-.1.31.31,0,0,0,0,.1.17.17,0,0,0,0,.12,1,1,0,0,0,0,.18.36.36,0,0,0,.1.14v0h-.09l-.1,0,0,0v-.05l0,0s0-.06,0-.07a.34.34,0,0,0,0-.1V11h0v0l0-.06a.16.16,0,0,0-.1-.08.24.24,0,0,1,.09.08.11.11,0,0,1,0,.05l-.05,0h0v0a2.16,2.16,0,0,0,0,.36v0l0,0a.15.15,0,0,1,0,.06s0,.06,0,.09-.16,0-.19,0v0l0,0v0l-.05,0a.77.77,0,0,0-.07-.42.14.14,0,0,1,0-.06s0,0,0-.06a.16.16,0,0,0,0-.09.55.55,0,0,0,0-.22c0-.05-.05-.09-.07-.14s0-.11,0-.17,0,0,0,0-.07,0-.11,0h0l0,0S84.9,10,85,10s.09,0,.14.06h.11s0,0,0,0,0,0,0,0l.14-.05a.53.53,0,0,1,.25,0,2.1,2.1,0,0,0,.24.06,1.13,1.13,0,0,0,.26,0,.45.45,0,0,0,.16,0,.91.91,0,0,1,.14-.07l.11,0a.28.28,0,0,0,.12-.08.77.77,0,0,0,.15-.16.61.61,0,0,0,.07-.14c0-.05.08-.06.13-.08A.51.51,0,0,0,87,9.24s0,0,0,0a.83.83,0,0,0-.16-.09v0l.18.08a.31.31,0,0,1,.16.21l.08,0,.12.09a1.2,1.2,0,0,0,.24.15h0v0A.08.08,0,0,1,87.6,9.78Z"/><g class="cls-6"><path class="cls-4" d="M92.5,6.33s-.39-.35-1.33.06c0,0-1-.14-1.28.09a.77.77,0,0,0-.44,0,.83.83,0,0,0-.29,0l-.46,0h4.62l-.23-.12,0,0A.54.54,0,0,0,92.5,6.33Z"/><path class="cls-4" d="M85.94,7.72s-.17-.17-.6,0c0,0-.45-.07-.59,0a.39.39,0,0,0-.2,0,.36.36,0,0,0-.14,0l-.21,0h2.12l-.1-.05h0A.26.26,0,0,0,85.94,7.72Z"/><path class="cls-4" d="M94.9,7.6a.33.33,0,0,0-.24,0,.36.36,0,0,0-.37-.09s-.25-.23-.87,0c0,0-.65-.09-.84.06a.53.53,0,0,0-.3,0,.48.48,0,0,0-.19,0l-.3,0h3.08l0-.06Z"/></g></g></g></svg>